<?xml version="1.0" encoding="utf-8"?>
<!-- Generator: Adobe Illustrator 23.0.5, SVG Export Plug-In . SVG Version: 6.00 Build 0)  -->
<svg version="1.1" id="Слой_1" focusable="false"
	 xmlns="http://www.w3.org/2000/svg" xmlns:xlink="http://www.w3.org/1999/xlink" x="0px" y="0px" viewBox="0 0 576 512"
	 style="enable-background:new 0 0 576 512;" xml:space="preserve">
<style type="text/css">
	.st0{fill:#212529;}
</style>
<path class="st0" d="M528,32H48C21.5,32,0,53.5,0,80v352c0,26.5,21.5,48,48,48h480c26.5,0,48-21.5,48-48V80
	C576,53.5,554.5,32,528,32z M176,128c35.3,0,64,28.7,64,64s-28.7,64-64,64s-64-28.7-64-64S140.7,128,176,128z M288,364.8
	c0,10.6-10,19.2-22.4,19.2H86.4C74,384,64,375.4,64,364.8v-19.2c0-31.8,30.1-57.6,67.2-57.6h5c12.3,5.1,25.7,8,39.8,8
	s27.6-2.9,39.8-8h5c37.1,0,67.2,25.8,67.2,57.6V364.8z M512,312c0,4.4-3.6,8-8,8H360c-4.4,0-8-3.6-8-8v-16c0-4.4,3.6-8,8-8h144
	c4.4,0,8,3.6,8,8V312z M512,248c0,4.4-3.6,8-8,8H360c-4.4,0-8-3.6-8-8v-16c0-4.4,3.6-8,8-8h144c4.4,0,8,3.6,8,8V248z M512,184
	c0,4.4-3.6,8-8,8H360c-4.4,0-8-3.6-8-8v-16c0-4.4,3.6-8,8-8h144c4.4,0,8,3.6,8,8V184z"/>
</svg>
