<svg id="Capa_1" enable-background="new 0 0 512 512" height="512" viewBox="0 0 512 512" width="512" xmlns="http://www.w3.org/2000/svg"><g><path d="m131.005 181c52.383 0 94.995 42.612 94.995 94.995v55.005c0 16.538 13.462 30 30 30s30-13.462 30-30v-55.005c0-52.383 42.612-94.995 94.995-94.995h17.529l7.476-45h-299.802l7.097 45zm109.995 0h30v30h-30z"/><path d="m166 0c-33.091 0-60 26.909-60 60v46h300v-46c0-33.091-26.909-60-60-60h-15v60h-30v-60h-30v60h-30v-60h-30v60h-30v-60z"/><path d="m343.7 512 49.839-301h-12.545c-35.844 0-64.994 29.15-64.994 64.995v55.005c0 33.091-26.909 60-60 60s-60-26.909-60-60v-55.005c0-35.845-29.15-64.995-64.995-64.995h-12.709l50.004 301z"/></g>

<style type="text/css">
	#Capa_1{fill:#DCA33E;}
</style>

</svg>