<?xml version="1.0" encoding="iso-8859-1"?>
<!-- Generator: Adobe Illustrator 19.0.0, SVG Export Plug-In . SVG Version: 6.00 Build 0)  -->
<svg version="1.1" id="Capa_1" xmlns="http://www.w3.org/2000/svg" xmlns:xlink="http://www.w3.org/1999/xlink" x="0px" y="0px"
	 viewBox="0 0 288.96 288.96" style="enable-background:new 0 0 288.96 288.96;" xml:space="preserve">

<style type="text/css">
	#Capa_1{fill:#0a4d55;}
</style>


<g>
	<g>
		<path d="M285.533,45.12c0.221-4.418-3.182-8.179-7.6-8.4c-4.418-0.221-8.179,3.182-8.4,7.6c-15.6,73.2-45.44,112-86.4,112
			c-12.1-0.153-23.984-3.227-34.64-8.96c-2.475-1.429-5.525-1.429-8,0c-10.639,5.778-22.534,8.855-34.64,8.96
			c-40.96,0-70.88-38.72-86.4-112c-0.221-4.418-3.982-7.821-8.4-7.6c-4.418,0.221-7.821,3.982-7.6,8.4
			c-0.64,6-16,147.76,24.48,195.2c7.726,9.564,19.161,15.384,31.44,16h0.88c5.568-0.029,11.05-1.372,16-3.92
			c4.8,16.64,17.04,35.6,42.72,36.56c10,0,19.28-9.12,25.44-17.28c6.24,8,15.44,17.28,25.44,17.28h0.64
			c25.2-0.96,37.28-19.92,42.08-36.56c4.951,2.545,10.433,3.888,16,3.92h0.96c12.279-0.616,23.714-6.436,31.44-16
			C301.372,192.64,286.253,51.12,285.533,45.12z M248.572,229.92L248.572,229.92c-4.772,6.251-11.996,10.155-19.84,10.72
			c-5.914-0.037-11.414-3.043-14.64-8c-2.32-3.76-7.249-4.927-11.009-2.607c-2.252,1.39-3.671,3.803-3.791,6.447
			c0,1.44-1.92,35.28-29.28,36.4c-3.68,0-12.64-9.52-18.56-19.6c-2.217-3.822-7.112-5.123-10.934-2.906
			c-1.205,0.699-2.207,1.701-2.906,2.906c-5.84,10.08-14.88,19.6-18.56,19.6c-27.12-1.04-29.2-34.96-29.28-36.4
			c-0.264-4.41-4.054-7.771-8.464-7.507c-2.551,0.153-4.876,1.516-6.256,3.667c-3.343,4.818-8.857,7.664-14.72,7.6
			c-7.75-0.489-14.93-4.239-19.76-10.32c-22.64-26.64-25.04-92.08-24-137.04c38.8,104,110.16,78.8,128,70.24
			c17.84,8.64,89.2,33.52,128-70.24C273.932,137.84,271.533,203.28,248.572,229.92z"/>
	</g>
</g>
<g>
	<g>
		<path d="M237.359,48.162c-1.96-1.672-4.605-2.298-7.106-1.682c-2.925,0.96-5.965,1.525-9.04,1.68c-6.16,0-12.32-4.72-25.6-29.04
			c-8.48-15.44-18.8-18.64-25.92-18.64c-9.568,0.568-18.556,4.775-25.12,11.76c-6.446-7.125-15.38-11.506-24.96-12.24
			c-7.12,0-17.44,3.28-25.92,18.64c-13.28,24-19.44,29.04-25.6,29.04c-3.075-0.155-6.115-0.72-9.04-1.68
			c-4.29-1.057-8.625,1.564-9.682,5.854c-0.616,2.501,0.01,5.146,1.682,7.106c0.8,1.28,24.48,28.24,53.04,28.24
			c16.385-0.394,31.526-8.832,40.48-22.56c8.863,13.88,24.019,22.477,40.48,22.96c28.56,0,52.16-26.96,53.2-28.16
			C241.12,56.079,240.72,51.029,237.359,48.162z M185.132,71.2c-12.72,0-24-8.64-33.52-25.6c-2.139-3.866-7.007-5.266-10.873-3.127
			c-1.315,0.728-2.399,1.812-3.127,3.127c-9.52,17.04-20.8,25.6-33.52,25.6c-9.314-0.55-18.266-3.803-25.76-9.36
			c10.64-4.4,18.96-16.24,29.44-35.44h0.08c3.76-6.88,8-10.4,11.84-10.4c7.36,0,16,9.68,18.4,13.04
			c2.56,3.601,7.555,4.445,11.156,1.884c0.729-0.518,1.366-1.155,1.884-1.884c2.4-3.36,11.04-13.04,18.4-13.04
			c4.08,0,8,3.52,11.84,10.4c10.48,19.12,18.8,31.04,29.52,35.44C203.398,67.397,194.446,70.65,185.132,71.2z"/>
	</g>
</g>
<g>
</g>
<g>
</g>
<g>
</g>
<g>
</g>
<g>
</g>
<g>
</g>
<g>
</g>
<g>
</g>
<g>
</g>
<g>
</g>
<g>
</g>
<g>
</g>
<g>
</g>
<g>
</g>
<g>
</g>
</svg>
