<?xml version="1.0" encoding="iso-8859-1"?>
<!-- Generator: Adobe Illustrator 19.0.0, SVG Export Plug-In . SVG Version: 6.00 Build 0)  -->
<svg version="1.1" id="Capa_1" xmlns="http://www.w3.org/2000/svg" xmlns:xlink="http://www.w3.org/1999/xlink" x="0px" y="0px"
	 viewBox="0 0 496 496" style="enable-background:new 0 0 496 496;" xml:space="preserve">

	 
<style type="text/css">
	#Capa_1{fill:#0a4d55;}
</style>

<g>
	<g>
		<g>
			<path d="M232,96h-16V24c0-13.232-10.768-24-24-24H96C82.768,0,72,10.768,72,24v72H56c-30.872,0-56,25.12-56,56v288
				c0,30.872,25.128,56,56,56h176c30.872,0,56-25.128,56-56V152C288,121.12,262.872,96,232,96z M88,24c0-4.408,3.584-8,8-8h8v48h16
				V16h16v48h16V16h16v48h16V16h8c4.416,0,8,3.592,8,8v72H88V24z M272,440c0,22.056-17.944,40-40,40H56c-22.056,0-40-17.944-40-40
				V152c0-22.056,17.944-40,40-40h16h144h16c22.056,0,40,17.944,40,40V440z"/>
			<path d="M32,408h224V184H32V408z M48,200h192v192H48V200z"/>
			<rect x="64" y="232" width="16" height="16"/>
			<rect x="96" y="232" width="128" height="16"/>
			<rect x="64" y="264" width="160" height="16"/>
			<rect x="64" y="296" width="160" height="16"/>
			<rect x="64" y="328" width="128" height="16"/>
			<rect x="208" y="328" width="16" height="16"/>
			<path d="M488,128V48H312v80h-8v47.432c0,33.856,23.624,63.304,56,71.168V472c0,13.232,10.768,24,24,24h32
				c13.232,0,24-10.768,24-24V246.6c32.376-7.864,56-37.312,56-71.168V128H488z M424,64h16v32h16V64h16v64h-16v-16h-16v16h-16V64z
				 M392,64h16v64h-16V64z M328,64h16v16h16V64h16v64h-16V96h-16v32h-16V64z M424,472c0,4.416-3.584,8-8,8h-32c-4.416,0-8-3.584-8-8
				v-8h48V472z M480,160h-16v16h15.976c-0.288,28.048-21.288,52.104-49.112,56.08L424,233.064V448h-48V233.064l-6.864-0.984
				c-27.816-3.976-48.824-28.032-49.104-56.08H448v-16H320v-16h160V160z"/>
		</g>
	</g>
</g>
<g>
</g>
<g>
</g>
<g>
</g>
<g>
</g>
<g>
</g>
<g>
</g>
<g>
</g>
<g>
</g>
<g>
</g>
<g>
</g>
<g>
</g>
<g>
</g>
<g>
</g>
<g>
</g>
<g>
</g>
</svg>
