<?xml version="1.0" encoding="utf-8"?>
<!-- Generator: Adobe Illustrator 23.0.5, SVG Export Plug-In . SVG Version: 6.00 Build 0)  -->
<svg version="1.1" id="Слой_1" focusable="false"
	 xmlns="http://www.w3.org/2000/svg" xmlns:xlink="http://www.w3.org/1999/xlink" x="0px" y="0px" viewBox="0 0 512 512"
	 style="enable-background:new 0 0 512 512;" xml:space="preserve">
<style type="text/css">
	.st0{fill:#FFFFFF;}
	.st1{fill:#DCA33E;}
</style>
<path class="st0" d="M284.7,346.7c0,0-18.1-38.3-25.4-53.4c-1.6-3.4-4.6-14.7-8.3-30.2c7.6-9,16.1-19.8,21.4-28.7
	c11.7-19.8,53.4-107.2,53.4-107.2s-72.1,100.4-80.3,111.6l0,0c-12.3-55.6-27.6-132.9-27.6-132.9L231,252.1
	c-3.8,3.8-8.4,9.6-14.2,20.6c-14.3,26.8-36.5,37.8-43.1,40.8c-6.5,3-25-4.2-39.8,13.1c-16.7,19.6-4.9,44.9,19.6,39.3
	c24.3-5.5,28.4-41.5,28.4-41.5s16.3-20.5,29.8-28.2s22-13.9,22-13.9l0.5,6.1c0,0,31.8,10,38.3,60c0,0-13,29.3,1.1,46.1
	c14.1,16.7,41.3,19.4,37.6-19.2C309.7,355.1,284.7,346.7,284.7,346.7z M139.9,355.3c-16.4-14.6,15.8-41.3,29.4-30.1
	C179.3,333.5,156.3,369.8,139.9,355.3z M235.7,259.1c0.7-3.1,3.8-5,6.8-4.3c3.1,0.7,5,3.8,4.3,6.8c-0.7,3.1-3.8,5-6.8,4.3
	C236.9,265.2,235,262.1,235.7,259.1z M294.7,396.6c-21.1,5.9-26-36.8-13.3-39.9C298.6,352.6,315.9,390.7,294.7,396.6z"/>
<ellipse class="st1" cx="256" cy="251.8" rx="193.7" ry="193.7"/>
<path class="st1" d="M449.7,251.8c0-5.2-0.2-10.4-0.6-15.6c-0.6-0.4-1.1-0.6-1.6-0.8c0-0.8-0.2-1.4-0.7-1.8c-1-0.9-2-1.5-2.9-1.8
	c0-0.8-0.2-1.4-0.7-1.8c-1-0.9-2-1.5-2.9-1.8c0-0.8-0.2-1.4-0.7-1.8c-1-0.9-2-1.5-2.9-1.8c0-0.8-0.2-1.4-0.7-1.8
	c-1-0.9-2-1.5-2.9-1.8c0-0.8-0.2-1.4-0.7-1.8c-1-0.9-2-1.5-2.9-1.8c0-0.8-0.2-1.4-0.7-1.8c-1-0.9-2-1.5-2.9-1.8
	c0-0.8-0.2-1.4-0.7-1.8c-1-0.9-2-1.5-2.9-1.8c0-0.8-0.2-1.4-0.7-1.8c-1-0.9-2-1.5-2.9-1.8c0-0.8-0.2-1.4-0.7-1.8
	c-1-0.9-2-1.5-2.9-1.8c0-0.8-0.2-1.4-0.7-1.8c-1-0.9-2-1.5-2.9-1.8c0-0.8-0.2-1.4-0.7-1.8c-1-0.9-2-1.5-2.9-1.8
	c0-0.8-0.2-1.4-0.7-1.8c-4.5-4-6.9-1-14.3,0.7c-0.9-1.7-2.1-2.6-3.3-3.1c-0.9-2-2.3-3-3.6-3.6c-0.9-2-2.3-3-3.6-3.6
	c-0.9-2-2.3-3-3.6-3.6c-0.9-2-2.3-3-3.6-3.6c-0.9-2-2.3-3-3.6-3.6c-0.9-2-2.3-3-3.6-3.6c-0.9-2-2.3-3-3.6-3.6
	c-2.4-5.2-7.8-4.1-7.8-4.1c-4.6,1.3-9.2,7-14.9,16.2c-49.9-13.3-177.9-46.9-187-43.6c-11.3,4.2-12.5,28-5.4,33.4
	c0.3,0.2,0.7,0.4,1.2,0.6c0.6,1.2,1.4,2.3,2.4,2.9c0.3,0.2,0.7,0.4,1.2,0.6c0.6,1.2,1.4,2.3,2.4,2.9c0.3,0.2,0.7,0.4,1.2,0.6
	c0.6,1.2,1.4,2.3,2.4,2.9c0.3,0.2,0.7,0.4,1.2,0.6c0.6,1.2,1.4,2.3,2.4,2.9c0.3,0.2,0.7,0.4,1.2,0.6c0.6,1.2,1.4,2.3,2.4,2.9
	c0.3,0.2,0.7,0.4,1.2,0.6c0.6,1.2,1.4,2.3,2.4,2.9c0.3,0.2,0.7,0.4,1.2,0.6c0.6,1.2,1.4,2.3,2.4,2.9c0.3,0.2,0.7,0.4,1.2,0.6
	c0.6,1.2,1.4,2.3,2.4,2.9c0.3,0.2,0.7,0.4,1.2,0.6c0.6,1.2,1.4,2.3,2.4,2.9c0.3,0.2,0.7,0.4,1.2,0.6c0.6,1.2,1.4,2.3,2.4,2.9
	c0.3,0.2,0.7,0.4,1.2,0.6c0.6,1.2,1.4,2.3,2.4,2.9c0.3,0.2,0.7,0.4,1.2,0.6c0.6,1.2,1.4,2.3,2.4,2.9c0.3,0.2,0.7,0.4,1.2,0.6
	c0.6,1.2,1.4,2.3,2.4,2.9c0.3,0.2,0.7,0.4,1.2,0.6c0.6,1.2,1.4,2.3,2.4,2.9c0.3,0.2,0.7,0.4,1.2,0.6c0.6,1.2,1.4,2.3,2.4,2.9
	c0.3,0.2,0.7,0.4,1.2,0.6c0.6,1.2,1.4,2.3,2.4,2.9c0.3,0.2,0.7,0.4,1.2,0.6c0.6,1.2,1.4,2.3,2.4,2.9c0.3,0.2,0.7,0.4,1.2,0.6
	c0.6,1.2,1.4,2.3,2.4,2.9c0.3,0.2,0.7,0.4,1.2,0.6c0.6,1.2,1.4,2.3,2.4,2.9c0.3,0.2,0.7,0.4,1.2,0.6c0.6,1.2,1.4,2.3,2.4,2.9
	c0.3,0.2,0.7,0.4,1.2,0.6c0.6,1.2,1.4,2.3,2.4,2.9c0.3,0.2,0.7,0.4,1.2,0.6c0.6,1.2,1.4,2.3,2.4,2.9c0.3,0.2,0.7,0.4,1.2,0.6
	c0.6,1.2,1.4,2.3,2.4,2.9c0.3,0.2,0.7,0.4,1.2,0.6c0.6,1.2,1.4,2.3,2.4,2.9c0.3,0.2,0.7,0.4,1.2,0.6c0.6,1.2,1.4,2.3,2.4,2.9
	c0.3,0.2,0.7,0.4,1.2,0.6c0.6,1.2,1.4,2.3,2.4,2.9c0.3,0.2,0.7,0.4,1.2,0.6c0.6,1.2,1.4,2.3,2.4,2.9c0.3,0.2,0.7,0.4,1.2,0.6
	c0.6,1.2,1.4,2.3,2.4,2.9c0.3,0.2,0.7,0.4,1.2,0.6c0.6,1.2,1.4,2.3,2.4,2.9c0.3,0.2,0.7,0.4,1.2,0.6c0.6,1.2,1.4,2.3,2.4,2.9
	c0.3,0.2,0.7,0.4,1.2,0.6c0.6,1.2,1.4,2.3,2.4,2.9c0.3,0.2,0.7,0.4,1.2,0.6c0.6,1.2,1.4,2.3,2.4,2.9c0.3,0.2,0.7,0.4,1.2,0.6
	c0.6,1.2,1.4,2.3,2.4,2.9c0.1,0.1,0.2,0.1,0.3,0.2c-29.7,35.8-60.2,67.2-66.4,74.3c-6.7,7.7-2.9,17.7,3.8,22.9
	c1,1.4,2.3,2.6,3.6,3.6c1,1.4,2.3,2.6,3.6,3.6c1,1.4,2.3,2.6,3.6,3.6c1,1.4,2.3,2.6,3.6,3.6c1,1.4,2.3,2.6,3.6,3.6
	c1,1.4,2.3,2.6,3.6,3.6c1,1.4,2.3,2.6,3.6,3.6c1,1.4,2.3,2.6,3.6,3.6c1,1.4,2.3,2.6,3.6,3.6c1,1.4,2.3,2.6,3.6,3.6
	c1,1.4,2.3,2.6,3.6,3.6c1,1.4,2.3,2.6,3.6,3.6c1,1.4,2.3,2.6,3.6,3.6c1,1.4,2.3,2.6,3.6,3.6c1,1.4,2.3,2.6,3.6,3.6
	c1,1.4,2.3,2.6,3.6,3.6c1,1.3,2.1,2.4,3.4,3.4C368.5,439.9,449.7,355.3,449.7,251.8z"/>
<path class="st0" d="M407.3,194.1c-6-5.4-8.3,1.8-23.8,1.8c-12.9,0-19.6-8.3-21.5-11c2.3-5.6,3.6-9.8,3.6-12.2
	c0-11.9-8.9-10.1-8.9-10.1c-4.6,1.3-9.2,7-14.9,16.2c-49.9-13.3-177.9-46.9-187-43.6c-11.3,4.2-12.5,28-5.4,33.4
	s121.5,22.6,132.7,23.2c11.1,0.6,13.3-10.1,13.3-10.1s24.6,3.7,40.7,6.7c-9,15.4-20.9,36.8-38.9,61.8C262,299,210.1,352,201.8,361.5
	s-0.5,22.7,8.9,25.6c17.3,5.4,62.5-39.9,92.3-92.3c20.3-35.7,41.9-73.9,53.7-98.4c4.5,4,9.9,8.7,23.7,10.2
	C403.1,209,410.4,196.9,407.3,194.1z M285.2,175.1l-129.3-25.6c0.6-4.2,3-7.1,3-7.1L285.2,171V175.1z M216.7,377c-3.3,0-6-2.7-6-6
	s2.7-6,6-6s6,2.7,6,6S220,377,216.7,377z M348.9,191.2c-0.9,0-1.7-0.3-2.4-0.7c0.1,0,0.1,0,0.2,0c-1-0.6-1.8-1.7-2-2.9
	c0,0,0,0,0-0.1c0-0.2,0-0.3,0-0.5c0-2.3,1.9-4.2,4.2-4.2c2.3,0,4.2,1.9,4.2,4.2c0,0.1,0,0.3,0,0.4c0,0.1,0,0.2,0,0.3s0,0.1,0,0.2
	C352.6,189.7,351,191.1,348.9,191.2C349,191.1,349,191.1,348.9,191.2C349,191.1,349,191.2,348.9,191.2z"/>
</svg>
