<?xml version="1.0" encoding="utf-8"?>
<!-- Generator: Adobe Illustrator 23.0.5, SVG Export Plug-In . SVG Version: 6.00 Build 0)  -->
<svg version="1.1" id="Слой_1" focusable="false"
	 xmlns="http://www.w3.org/2000/svg" xmlns:xlink="http://www.w3.org/1999/xlink" x="0px" y="0px" viewBox="0 0 512 512"
	 style="enable-background:new 0 0 512 512;" xml:space="preserve">
<style type="text/css">
	.st0{fill:#DCA33E;}
	.st1{fill:#FFFFFF;}
</style>
<ellipse class="st0" cx="249" cy="256" rx="193.7" ry="193.7"/>
<path class="st0" d="M441.8,274.7c-0.9,1.3-1.9,2.6-2.9,4c1.1-2.2,2.1-4.4,3.1-6.4c0.2-2.4,0.4-4.8,0.5-7.1
	c-2.1,2.9-4.5,6.3-7.1,9.9c2.8-5.8,5.3-11,7.3-15.2c0-1.2,0-2.4,0-3.6c-2.8,3.9-6.6,9.1-11,15.3c4.8-10,8.7-18.1,10.8-22.5
	c0-0.4,0-0.7,0-1.1c-2.5,3.5-7.8,10.8-14.4,20c7.3-15,12.5-25.9,12.5-25.9s-6.6,9.2-16.1,22.4c7.3-15,12.5-25.9,12.5-25.9
	s-6.6,9.2-16.1,22.4c7.3-15,12.5-25.9,12.5-25.9s-6.6,9.2-16.1,22.4c7.3-15,12.5-25.9,12.5-25.9s-6.6,9.2-16.1,22.4
	c7.3-15,12.5-25.9,12.5-25.9s-6.6,9.2-16.1,22.4c7.3-15,12.5-25.9,12.5-25.9s-6.6,9.2-16.1,22.4c7.3-15,12.5-25.9,12.5-25.9
	s-6.6,9.2-16.1,22.4c7.3-15,12.5-25.9,12.5-25.9s-6.6,9.2-16.1,22.4c7.3-15,12.5-25.9,12.5-25.9s-6.6,9.2-16.1,22.4
	c7.3-15,12.5-25.9,12.5-25.9s-6.6,9.2-16.1,22.4c7.3-15,12.5-25.9,12.5-25.9s-6.6,9.2-16.1,22.4c7.3-15,12.5-25.9,12.5-25.9
	s-6.6,9.2-16.1,22.4c7.3-15,12.5-25.9,12.5-25.9s-6.6,9.2-16.1,22.4c7.3-15,12.5-25.9,12.5-25.9s-6.6,9.2-16.1,22.4
	c7.3-15,12.5-25.9,12.5-25.9s-6.6,9.2-16.1,22.4c7.3-15,12.5-25.9,12.5-25.9s-6.6,9.2-16.1,22.4c7.3-15,12.5-25.9,12.5-25.9
	s-6.6,9.2-16.1,22.4c7.3-15,12.5-25.9,12.5-25.9s-6.6,9.2-16.1,22.4c7.3-15,12.5-25.9,12.5-25.9s-6.6,9.2-16.1,22.4
	c7.3-15,12.5-25.9,12.5-25.9s-6.6,9.2-16.1,22.4c7.3-15,12.5-25.9,12.5-25.9s-6.6,9.2-16.1,22.4c7.3-15,12.5-25.9,12.5-25.9
	s-6.6,9.2-16.1,22.4c7.3-15,12.5-25.9,12.5-25.9s-6.6,9.2-16.1,22.4c7.3-15,12.5-25.9,12.5-25.9s-6.6,9.2-16.1,22.4
	c7.3-15,12.5-25.9,12.5-25.9s-6.6,9.2-16.1,22.4c7.3-15,12.5-25.9,12.5-25.9s-6.6,9.2-16.1,22.4c7.3-15,12.5-25.9,12.5-25.9
	s-6.6,9.2-16.1,22.4c7.3-15,12.5-25.9,12.5-25.9s-6.6,9.2-16.1,22.4c7.3-15,12.5-25.9,12.5-25.9s-6.6,9.2-16.1,22.4
	c7.3-15,12.5-25.9,12.5-25.9s-6.6,9.2-16.1,22.4c7.3-15,12.5-25.9,12.5-25.9s-6.6,9.2-16.1,22.4c7.3-15,12.5-25.9,12.5-25.9
	s-6.6,9.2-16.1,22.4c7.3-15,12.5-25.9,12.5-25.9s-18.8,26.2-38.3,53.4c-0.8-4.1-1.3-6.4-1.3-6.4l0.6,7.2c-0.5,0.8-1.1,1.5-1.6,2.3
	c-1.6-8.2-2.6-13.1-2.6-13.1l1.3,14.9c-0.3,0.5-0.6,0.9-1,1.4c-2.4-12.2-4-19.8-4-19.8l2,22.5c-0.1,0.1-0.2,0.3-0.3,0.4
	c-3.2-16-5.3-26.5-5.3-26.5l2.3,26c-3.6-17.7-5.9-29.6-5.9-29.6l2.3,26c-3.6-17.7-5.9-29.6-5.9-29.6l2.3,26
	c-3.6-17.7-5.9-29.6-5.9-29.6l2.3,26c-3.6-17.7-5.9-29.6-5.9-29.6l2.3,26c-3.6-17.7-5.9-29.6-5.9-29.6l2.3,26
	c-3.6-17.7-5.9-29.6-5.9-29.6l2.3,26c-3.6-17.7-5.9-29.6-5.9-29.6l2.3,26c-3.6-17.7-5.9-29.6-5.9-29.6l2.3,26
	c-3.6-17.7-5.9-29.6-5.9-29.6l2.3,26c-3.6-17.7-5.9-29.6-5.9-29.6l2.3,26c-3.6-17.7-5.9-29.6-5.9-29.6l2.3,26
	c-3.6-17.7-5.9-29.6-5.9-29.6l2.3,26c-3.6-17.7-5.9-29.6-5.9-29.6l2.3,26c-3.6-17.7-5.9-29.6-5.9-29.6l2.3,26
	c-3.6-17.7-5.9-29.6-5.9-29.6l2.3,26c-3.6-17.7-5.9-29.6-5.9-29.6L231,252.1c-3.8,3.8-8.4,9.6-14.2,20.6
	c-14.3,26.8-36.5,37.8-43.1,40.8c-6.5,3-25-4.2-39.8,13.1c-11.2,13.1-9.6,28.7,0,36c1,1.3,2.2,2.6,3.6,3.6c1,1.3,2.2,2.6,3.6,3.6
	c1,1.3,2.2,2.6,3.6,3.6c1,1.3,2.2,2.6,3.6,3.6c1,1.3,2.2,2.6,3.6,3.6c1,1.3,2.2,2.6,3.6,3.6c1,1.3,2.2,2.6,3.6,3.6
	c1,1.3,2.2,2.6,3.6,3.6c1,1.3,2.2,2.6,3.6,3.6c1,1.3,2.2,2.6,3.6,3.6c1,1.3,2.2,2.6,3.6,3.6c1,1.3,2.2,2.6,3.6,3.6
	c1,1.3,2.2,2.6,3.6,3.6c1,1.3,2.2,2.6,3.6,3.6c1,1.3,2.2,2.6,3.6,3.6c1,1.3,2.2,2.6,3.6,3.6c1,1.3,2.2,2.6,3.6,3.6
	c1,1.3,2.2,2.6,3.6,3.6c1,1.3,2.2,2.6,3.6,3.6c1,1.3,2.2,2.6,3.6,3.6c1,1.3,2.2,2.6,3.6,3.6c1,1.3,2.2,2.6,3.6,3.6
	c1,1.3,2.2,2.6,3.6,3.6c0.6,0.8,1.2,1.5,1.9,2.1c10,1.6,20.2,2.4,30.6,2.4C349.7,449.7,432.4,372.9,441.8,274.7z"/>
<path class="st1" d="M284.7,346.7c0,0-18.1-38.3-25.4-53.4c-1.6-3.4-4.6-14.7-8.3-30.2c7.6-9,16.1-19.8,21.4-28.7
	c11.7-19.8,53.4-107.2,53.4-107.2s-72.1,100.4-80.3,111.6l0,0c-12.3-55.6-27.6-132.9-27.6-132.9L231,252.1
	c-3.8,3.8-8.4,9.6-14.2,20.6c-14.3,26.8-36.5,37.8-43.1,40.8c-6.5,3-25-4.2-39.8,13.1c-16.7,19.6-4.9,44.9,19.6,39.3
	c24.3-5.5,28.4-41.5,28.4-41.5s16.3-20.5,29.8-28.2s22-13.9,22-13.9l0.5,6.1c0,0,31.8,10,38.3,60c0,0-13,29.3,1.1,46.1
	c14.1,16.7,41.3,19.4,37.6-19.2C309.7,355.1,284.7,346.7,284.7,346.7z M139.9,355.3c-16.4-14.6,15.8-41.3,29.4-30.1
	C179.3,333.5,156.3,369.8,139.9,355.3z M235.7,259.1c0.7-3.1,3.8-5,6.8-4.3c3.1,0.7,5,3.8,4.3,6.8c-0.7,3.1-3.8,5-6.8,4.3
	C236.9,265.2,235,262.1,235.7,259.1z M294.7,396.6c-21.1,5.9-26-36.8-13.3-39.9C298.6,352.6,315.9,390.7,294.7,396.6z"/>
</svg>
