<?xml version="1.0" encoding="utf-8"?>
<!-- Generator: Adobe Illustrator 23.0.5, SVG Export Plug-In . SVG Version: 6.00 Build 0)  -->
<svg version="1.1" id="Слой_1" focusable="false"
	 xmlns="http://www.w3.org/2000/svg" xmlns:xlink="http://www.w3.org/1999/xlink" x="0px" y="0px" viewBox="0 0 512 512"
	 style="enable-background:new 0 0 512 512;" xml:space="preserve">
<style type="text/css">
	.st0{fill:#DCA33E;}
	.st1{fill:#FFFFFF;}
</style>
<ellipse class="st0" cx="261" cy="256" rx="193.7" ry="193.7"/>
<path class="st0" d="M454.7,256c0-2.4-0.1-4.8-0.1-7.1h-1.2v-3.1h-2v-0.4h-1.6v-3.1h-2v-0.4h-1.6v-3.1h-2v-0.4h-1.6v-3.1h-2v-0.4
	H439v-3.1h-2v-0.4h-1.6v-3.1h-2v-0.4h-1.6v-3.1h-2v-0.4h-1.6v-3.1h-2v-0.4h-1.6V217h-2v-0.4H421v-3.1h-2V213h-1.6v-3.1h-2v-0.4h-1.6
	v-3.1h-2V206h-1.6v-3.1h-2v-0.4h-1.6V199h-2v-0.4H403v-3.1h-2V195h-1.6v-3.1h-2v-0.4h-1.6v-3.1h-2V188h-1.6v-3.1h-2v-0.4h-1.6v-3.1
	h-2V181H385v-3.1h-2v-0.4h-1.6v-3.1h-2V174H378v-3.1h-2v-0.4h-1.6v-3.1h-2V167h-1.6v-3.1h-2v-0.4h-1.6v-3.1h-2V160h-1.6v-4h-2v-0.4
	H360v-3.1h-2v-0.4h-1.6V149h-2v-0.4h-1.6v-3.1h-2v-0.4h-1.6V142h-2v-0.4h-1.6V138h-2v-0.4H342v-3.1h-2V134h-3.6v-3.6h-14.8l-0.7-0.9
	h-0.8l-2.8-3.6h-6.9c0-0.2,0-0.3,0-0.3s-1.3,0-3.6,0c0-2.3,0-3.6,0-3.6s-1.3,0-3.6,0c0-2.3,0-3.6,0-3.6s-1.3,0-3.6,0
	c0-2.3,0-3.6,0-3.6s-23.2,0-47.4,0s-29.3,13.6-41.9,23.7c-12.6,10.1-44.4,17.7-44.4,17.7v10.1h3.6v3.6h3.6v3.6h3.6v3.6h3.6v3.6h3.6
	v3.6h3.6v3.6h3.6v3.6h3.6v3.6h3.6v3.6h3.6v3.6h3.6v3.6h3.6v3.6h3.6v3.6h3.6v3.6h0.5c-0.8,1.5-1.2,3.2-1.2,5.1v16.3
	c-21.7,0.2-65.7,30-65.7,73c0,35.6,13.2,62.1,25.5,73c1.2,1.3,2.4,2.5,3.6,3.6c1.2,1.3,2.4,2.5,3.6,3.6c1.2,1.3,2.4,2.5,3.6,3.6
	c1.2,1.3,2.4,2.5,3.6,3.6c1.2,1.3,2.4,2.5,3.6,3.6c1.2,1.3,2.4,2.5,3.6,3.6c1.2,1.3,2.4,2.5,3.6,3.6c1.2,1.3,2.4,2.5,3.6,3.6
	c1.2,1.3,2.4,2.5,3.6,3.6c1.2,1.3,2.4,2.5,3.6,3.6c1.2,1.3,2.4,2.5,3.6,3.6c1.2,1.3,2.4,2.5,3.6,3.6c1.2,1.3,2.4,2.5,3.6,3.6
	c1.2,1.3,2.4,2.5,3.6,3.6c1.2,1.3,2.4,2.5,3.6,3.6c1.2,1.3,2.4,2.5,3.6,3.6c1.2,1.3,2.4,2.5,3.6,3.6c1.2,1.3,2.4,2.5,3.6,3.6
	c0.1,0.1,0.1,0.1,0.2,0.2c6.8,0.7,13.7,1.1,20.8,1.1C368,449.7,454.7,363,454.7,256z"/>
<path class="st1" d="M348.1,239.3c-28.2-10.1-48.4-36.8-48.4-55.5c0-6.3,0-16.3,0-26.7h17.7l3.5-4.5h15.6v-4h5.5v-7.1v-7.1h-5.5v-4
	h-15.6l-3.5-4.5h-17.7c0-6.7,0-11.1,0-11.1s-23.2,0-47.4,0s-29.3,13.6-41.9,23.7c-12.6,10.1-44.4,17.7-44.4,17.7v10.1h36.8l4.5,16
	h21.2v28h-1.7c-6.3,0-11.3,5.1-11.3,11.3v16.3c-21.7,0.2-65.7,30-65.7,73c0,47.3,23.2,78.4,36.9,78.4s52.9,0,52.9,0s39.2,0,52.9,0
	c13.7,0,36.9-31.2,36.9-78.4c0-43-43.9-72.8-65.7-73v-16.3c0-6.3-5.1-11.3-11.3-11.3h-1.8c0.2-6.6,0.2-14.9-0.3-19.8
	c-1-9.1,12.1-14.6,14.1-4c9.6,29.8,35.3,44.9,55,57C339.1,255.5,361.8,247.9,348.1,239.3z"/>
</svg>
