<?xml version="1.0" encoding="utf-8"?>
<!-- Generator: Adobe Illustrator 23.0.5, SVG Export Plug-In . SVG Version: 6.00 Build 0)  -->
<svg version="1.1" id="Слой_1" focusable="false"
	 xmlns="http://www.w3.org/2000/svg" xmlns:xlink="http://www.w3.org/1999/xlink" x="0px" y="0px" viewBox="0 0 576 512"
	 style="enable-background:new 0 0 576 512;" xml:space="preserve">
<style type="text/css">
	.st0{fill:#212529;}
</style>
<path class="st0" d="M480,416v16c0,26.5-21.5,48-48,48H48c-26.5,0-48-21.5-48-48V176c0-26.5,21.5-48,48-48h16v208
	c0,44.1,35.9,80,80,80H480z M576,336V80c0-26.5-21.5-48-48-48H144c-26.5,0-48,21.5-48,48v256c0,26.5,21.5,48,48,48h384
	C554.5,384,576,362.5,576,336z M256,128c0,26.5-21.5,48-48,48s-48-21.5-48-48s21.5-48,48-48S256,101.5,256,128z M160,272l55.5-55.5
	c4.7-4.7,12.3-4.7,17,0L272,256l135.5-135.5c4.7-4.7,12.3-4.7,17,0L512,208v112H160V272z"/>
</svg>
