<?xml version="1.0" encoding="utf-8"?>
<!-- Generator: Adobe Illustrator 23.0.5, SVG Export Plug-In . SVG Version: 6.00 Build 0)  -->
<svg version="1.1" id="Capa_1" xmlns="http://www.w3.org/2000/svg" xmlns:xlink="http://www.w3.org/1999/xlink" x="0px" y="0px"
	 viewBox="0 0 512 512" style="enable-background:new 0 0 512 512;" xml:space="preserve">
<style type="text/css">
	.st0{fill:white;}
</style>
<g>
	<g>
		<path class="st0" d="M376,241c-46,0-89.9-11.2-120-30.3c-30.1,19.1-74,30.3-120,30.3c-41.7,0-113.7-16-134.1-52.7
			C-3.6,178.3,3.6,166,15,166c64,0,91.4-30.2,117.9-59.3C153.3,84.2,174.3,61,209.5,61c15.2,0,31.1,5.7,46.5,16.6
			C271.5,66.7,287.4,61,302.5,61c35.1,0,56.2,23.2,76.6,45.7C405.6,135.8,433,166,497,166c11.4,0,18.7,12.3,13.1,22.3
			C489.7,224.9,417.7,241,376,241L376,241z"/>
	</g>
	<g>
		<path class="st0" d="M245.4,446.6C220.9,417.3,181,398.4,181,346c0-41.4,33.6-75,75-75s75,33.6,75,75c0,52.2-41.4,73.1-64.4,100.6
			C260.7,452.5,251.3,452.5,245.4,446.6L245.4,446.6z"/>
	</g>
</g>
</svg>
