<?xml version="1.0"?>
<svg xmlns="http://www.w3.org/2000/svg" viewBox="0 0 512 512" width="512" height="512" class="icon"><g id="Solid"><path d="M243.815,111.755A96.061,96.061,0,0,0,234.3,41.676L121.936,363.489a8.006,8.006,0,0,1-8.844,5.258A56.469,56.469,0,0,0,104,368a56,56,0,0,0-55.938,58.654,56.338,56.338,0,0,0,53.283,53.285,56,56,0,0,0,38.064-99.317,8,8,0,0,1-2.36-9.179l31.528-78.427a8,8,0,0,1,5.483-4.777L201.4,281.4ZM144,424a40,40,0,1,1-40-40A40.045,40.045,0,0,1,144,424Zm48-160H176V248h16Z"/><circle cx="104" cy="424" r="24"/><path d="M152.849,226.416l22.678-64.946L133.7,41.667a95.477,95.477,0,0,0-9.513,70.1Z"/><circle cx="264" cy="424" r="24"/><path d="M264,368a56.815,56.815,0,0,0-9.095.746,8,8,0,0,1-8.838-5.259L217.69,282.224l-1.929,7.716a8,8,0,0,1-5.821,5.821l-8.554,2.138,29.567,73.546a8,8,0,0,1-2.362,9.18,56,56,0,1,0,91.347,46.026c.042-.845.062-1.7.062-2.651A56.063,56.063,0,0,0,264,368Zm0,96a40,40,0,1,1,40-40A40.045,40.045,0,0,1,264,464Z"/><path d="M448,32H380.844A86.959,86.959,0,0,0,336,44.4V56h88V72H336V88h88v16H336v16h88v16H336v16h88v16H336v16h88v16H336v16h88v16H336v16h88v16H336v16h88v16H336v16h88v16H336v16h88v16H336v16h88v16H336v16h88v16H336v16h88v16H336v11.6A86.959,86.959,0,0,0,380.844,480H448a16.019,16.019,0,0,0,16-16V48A16.019,16.019,0,0,0,448,32Z"/></g>

<style type="text/css">
	.icon{fill:#0a4d55;}
</style>

</svg>
