<!--?xml version="1.0" encoding="utf-8"?-->
<!-- Generator: Adobe Illustrator 18.1.1, SVG Export Plug-In . SVG Version: 6.00 Build 0)  -->

<svg version="1.1" id="_x31_0" xmlns="http://www.w3.org/2000/svg" xmlns:xlink="http://www.w3.org/1999/xlink" x="0px" y="0px" viewBox="0 0 512 512" style="width: 256px; height: 256px; opacity: 1;" xml:space="preserve">
<style type="text/css">
	.st0{fill:#374149;}
</style>
<g>
	<path class="st0" d="M256,0C114.614,0,0,114.61,0,256c0,141.383,114.614,256,256,256s256-114.617,256-256
		C512,114.61,397.386,0,256,0z M256,448c-105.867,0-192-86.133-192-192S150.133,64,256,64s192,86.133,192,192S361.867,448,256,448z"></path>
	<path class="st0" d="M225.086,250.23c-0.003,0.008-0.011,0.016-0.015,0.023c-0.031-0.038-0.07-0.086-0.102-0.129
		c-65.066,75.914-67.168,98.203-74.324,140.516c-0.738,4.242,4.355,6.382,7.156,2.992l2.141-2.602
		c8.09-9.805,53.785-67.281,88.594-111.195c-8.942-11.328-16.93-21.359-23.054-29.062L225.086,250.23z"></path>
	<path class="st0" d="M367.156,147.652c-0.031-0.144-0.078-0.277-0.106-0.418c-1.598-7.426-5.015-14.332-10.667-19.774
		c-3.668-3.543-7.966-6.027-12.532-7.816c-0.019-0.008-0.038-0.02-0.058-0.028c-2.179-0.847-4.426-1.453-6.73-1.91
		c-0.278-0.055-0.546-0.129-0.824-0.176c-2.254-0.398-4.527-0.59-6.848-0.625c-0.203,0-0.394-0.051-0.598-0.051
		c-0.246,0-0.492,0.035-0.738,0.039c-2.75,0.043-5.492,0.348-8.258,0.89c-0.371,0.074-0.742,0.122-1.114,0.203
		c-4.683,1.039-9.269,2.797-13.683,5.246c-0.469,0.258-0.918,0.55-1.379,0.824c-2.351,1.398-4.609,2.981-6.793,4.778
		c-0.594,0.492-1.176,1.008-1.754,1.527c-0.996,0.894-2.07,1.637-3.016,2.621c-11.32,11.782-16.297,27.07-14.664,40.875
		c1.168,9.875-1.945,19.797-8.633,27.149l-4.863,5.367l1.012,1.125c7.855,8.633,15.09,16.726,21.703,24.344
		c1.789-2.29,2.797-3.539,2.797-3.539c9.609-10.578,22.172-18.203,36.172-21c9.918-1.946,19.679-7.118,27.613-15.359
		c0.93-0.965,1.622-2.043,2.465-3.047c0.496-0.598,0.989-1.195,1.457-1.805c1.715-2.226,3.215-4.523,4.528-6.902
		c0.23-0.422,0.472-0.836,0.691-1.262c1.414-2.734,2.558-5.515,3.446-8.359c0.062-0.207,0.144-0.414,0.21-0.625
		c1.391-4.68,2.062-9.391,2.016-14.059c0-0.133,0.019-0.266,0.015-0.402c-0.004-0.175-0.05-0.335-0.058-0.511
		C367.89,152.484,367.645,150.047,367.156,147.652z M332.894,177.516c-8.207,5.984-18.668,5.367-24.738-0.469
		c-6.027-5.797-7.039-16.258-1.32-24.696c2.652-3.894,6.32-6.82,10.336-8.503c6.695-2.805,14.355-2.157,19.922,3.214
		C346,155.656,343.043,170.047,332.894,177.516z"></path>
	<path class="st0" d="M256.278,215.359l-0.274-0.312l-12.758-14.039c-6.727-7.352-9.801-17.274-8.633-27.149
		c1.633-13.843-3.344-29.094-14.664-40.875c-10.383-10.734-23.918-16.297-36.75-16.297c-10.27,0-20.11,3.539-27.614,10.774
		c-16.882,16.258-15.441,45.156,3.188,64.485c7.934,8.242,17.734,13.414,27.613,15.359c14.039,2.797,26.602,10.422,36.207,21
		c0,0,3.813,4.828,10.153,12.797c5.91,7.469,14,17.695,23.258,29.367c35.39,44.61,87.39,110.023,96.062,120.562l2.141,2.602
		c0.934,1.172,2.176,1.68,3.343,1.68c2.254,0,4.278-1.867,3.813-4.672c-7.469-43.906-9.414-66.274-82.102-149.5
		C272.301,233.133,264.637,224.57,256.278,215.359z M203.813,177.047c-3.153,3.07-7.508,4.671-12.137,4.671
		c-4.238,0-8.672-1.328-12.602-4.202c-10.11-7.469-13.066-21.86-4.16-30.454c3.422-3.344,7.699-4.859,12.054-4.859
		c6.848,0,13.886,3.774,18.203,10.148C210.89,160.789,209.879,171.25,203.813,177.047z M256,249.953
		c-5.012,0-9.078-4.062-9.078-9.07c0-5.008,4.066-9.078,9.078-9.078c5.012,0,9.074,4.07,9.074,9.078
		C265.074,245.89,261.012,249.953,256,249.953z"></path>
</g>
</svg>
