<?xml version="1.0"?>
<svg xmlns="http://www.w3.org/2000/svg" width="512" height="512" class="icon" viewBox="0 0 128 128"><g><path d="M64.99,35.793v-2.46h5.591a5.756,5.756,0,0,0,5.75-5.75V16a5.756,5.756,0,0,0-5.75-5.75H5.75A5.756,5.756,0,0,0,0,16V27.583a5.756,5.756,0,0,0,5.75,5.75h5.591v2.46a7.759,7.759,0,0,0,7.75,7.75H29.08l-2.1,62.619a11.2,11.2,0,1,0,22.38,0l-2.1-62.622h9.99A7.759,7.759,0,0,0,64.99,35.793Zm.322-12.11H11.018v-2.65H65.312ZM3.5,27.583V16a2.253,2.253,0,0,1,2.25-2.25H70.581A2.253,2.253,0,0,1,72.831,16V27.583a2.253,2.253,0,0,1-2.25,2.25H68.812V19.283a1.749,1.749,0,0,0-1.75-1.75H9.268a1.749,1.749,0,0,0-1.75,1.75v10.55H5.75A2.253,2.253,0,0,1,3.5,27.583Zm7.518-.4H65.312v2.65H11.018Zm3.823,8.61v-2.46H61.49v2.46a4.254,4.254,0,0,1-4.25,4.25H19.091A4.254,4.254,0,0,1,14.841,35.793Zm31.016,70.492a7.7,7.7,0,1,1-15.384,0l2.109-62.739H43.748Z"/><path d="M38.165,109.057a3,3,0,1,0-3-3A3.006,3.006,0,0,0,38.165,109.057Zm0-3.5a.5.5,0,1,1-.5.5A.5.5,0,0,1,38.165,105.557Z"/><path d="M121.218,68.743h-1.447V60.936a1.75,1.75,0,0,0-1.75-1.75h-3.543a7.466,7.466,0,0,0-3.946-8.674,7.336,7.336,0,0,0,.153-1.506,7.489,7.489,0,0,0-6.772-7.446,15.8,15.8,0,0,0-9.972-9.65,1.75,1.75,0,0,0-2.123,2.282c.5,1.374-.41,4.08-2.444,7.335H88.087a7.481,7.481,0,0,0-7.393,8.606A7.468,7.468,0,0,0,75.8,59.186H72.26a1.75,1.75,0,0,0-1.75,1.75v7.807H69.063a6.822,6.822,0,0,0-6.813,6.814v31.33a10.877,10.877,0,0,0,10.864,10.864h44.053a10.877,10.877,0,0,0,10.864-10.864V75.557A6.821,6.821,0,0,0,121.218,68.743ZM79.042,57.235a3.991,3.991,0,0,1,3.924-3.974,1.75,1.75,0,0,0,1.549-2.518,3.935,3.935,0,0,1-.406-1.737,3.984,3.984,0,0,1,3.978-3.979h2.241a1.75,1.75,0,0,0,1.459-.783,21.075,21.075,0,0,0,3.552-7.887A11.788,11.788,0,0,1,100.9,43.7a1.75,1.75,0,0,0,1.7,1.324h.609a3.984,3.984,0,0,1,3.978,3.979,3.9,3.9,0,0,1-.1.85H95.141a1.75,1.75,0,0,0,0,3.5h12.952a3.963,3.963,0,0,1,2.632,5.83H79.554A3.9,3.9,0,0,1,79.042,57.235ZM74.01,62.686h42.261v6.057H74.01Zm50.521,44.2a7.373,7.373,0,0,1-7.364,7.364H73.114a7.373,7.373,0,0,1-7.364-7.364V75.557a3.317,3.317,0,0,1,3.313-3.314h52.155a3.317,3.317,0,0,1,3.313,3.314Z"/><path d="M116.281,78.743H74a1.749,1.749,0,0,0-1.75,1.75V106A1.749,1.749,0,0,0,74,107.75h42.281a1.749,1.749,0,0,0,1.75-1.75V80.493A1.749,1.749,0,0,0,116.281,78.743Zm-1.75,25.507H75.75V82.243h38.781Z"/></g>


<style type="text/css">
	.icon{fill:#0a4d55;}
</style>

</svg>
